<svg id="INSTAGRAM_BLACK" xmlns="http://www.w3.org/2000/svg" width="24.982" height="24.982" viewBox="0 0 24.982 24.982">
  <path id="Trazado_4" data-name="Trazado 4" d="M207.667,76.226a1.464,1.464,0,1,0,1.465,1.464A1.465,1.465,0,0,0,207.667,76.226Z" transform="translate(-188.563 -71.765)" fill="#fff"/>
  <path id="Trazado_5" data-name="Trazado 5" d="M202.5,77.879a6.152,6.152,0,1,0,6.153,6.152A6.159,6.159,0,0,0,202.5,77.879Zm0,10.092a3.941,3.941,0,1,1,3.941-3.941A3.945,3.945,0,0,1,202.5,87.971Z" transform="translate(-189.904 -71.54)" fill="#fff"/>
  <path id="Trazado_6" data-name="Trazado 6" d="M208.153,97.281H198.18a7.512,7.512,0,0,1-7.5-7.5V79.8a7.512,7.512,0,0,1,7.5-7.5h9.973a7.513,7.513,0,0,1,7.5,7.5v9.974A7.513,7.513,0,0,1,208.153,97.281ZM198.18,74.649a5.159,5.159,0,0,0-5.154,5.153v9.974a5.16,5.16,0,0,0,5.154,5.154h9.973a5.16,5.16,0,0,0,5.154-5.154V79.8a5.159,5.159,0,0,0-5.154-5.153Z" transform="translate(-190.675 -72.299)" fill="#fff"/>
</svg>
