<?xml version="1.0" encoding="utf-8"?>
<!-- Generator: Adobe Illustrator 23.0.2, SVG Export Plug-In . SVG Version: 6.00 Build 0)  -->
<svg version="1.1" id="Capa_1" xmlns="http://www.w3.org/2000/svg" xmlns:xlink="http://www.w3.org/1999/xlink" x="0px" y="0px"
	 viewBox="0 0 1218.2 1136.2" style="enable-background:new 0 0 1218.2 1136.2;" xml:space="preserve">
<style type="text/css">
	.st0{fill:#383838;}
</style>
<g>
	<path class="st0" d="M1097.5,630C996.2,447.4,889,269.4,785.9,88.3c-33-57.9-56.4-44.1-83.5,5.4c-28.7,52.5-60.3,102.7-94.4,160.4
		c0-0.1-0.1-0.1-0.1-0.2c0,0.1-0.1,0.1-0.1,0.2c-34.2-57.7-65.8-107.9-94.4-160.4c-27.1-49.5-50.5-63.3-83.5-5.4
		C326.7,269.5,219.6,447.5,118.3,630c-69,124.2-90.1,260.3-74.5,409.3c3.6,34.6,37.8,57.3,71,46.8l3.4-1.1
		c24.1-7.6,39.5-30.7,38-55.9c-19-321.1,193.6-509.8,307.2-757.9c71.7,64,75.8,121.6,25.1,195.7c-54.9,80.5-101.5,169-150.7,254.9
		c-51.8,90.5-81.5,187.8-64,302.9c62.2-8.6,118.2-12.8,114.8-110.6c-1.9-51.8,25.8-69.6,69.9-68.1c49.7,1.7,99.6,2.5,149.4,2.5
		s99.6-0.8,149.4-2.5c44.2-1.5,71.9,16.3,69.9,68.1c-3.5,97.8,52.5,102,114.8,110.6c17.5-115.1-12.2-212.4-64-302.9
		c-49.1-85.9-95.7-174.4-150.7-254.9c-50.7-74.2-46.6-131.8,25.1-195.7C866,519.3,1078.6,708,1059.6,1029.1
		c-1.5,25.2,14,48.3,38,55.9c1.1,0.4,2.3,0.7,3.4,1.1c33.2,10.5,67.4-12.2,71-46.8C1187.6,890.3,1166.5,754.2,1097.5,630z
		 M727.8,704.8H488c42.2-73.1,78.2-135.6,119.1-206.6c0.2,0.4,0.5,0.9,0.8,1.4c0.2-0.4,0.5-0.9,0.8-1.4
		C649.5,569.2,685.6,631.7,727.8,704.8z"/>
</g>
</svg>
