<svg xmlns="http://www.w3.org/2000/svg" width="19.154" height="24.735" viewBox="0 0 19.154 24.735">
  <path id="PINTEREST_BLACK" d="M177.726,148.1c-.022.07-.041.131-.057.191-.908,3.559-1.009,4.35-1.943,6a18.462,18.462,0,0,1-1.5,2.242c-.062.081-.12.185-.247.16s-.148-.152-.162-.262a19.182,19.182,0,0,1-.2-3.258c.047-1.423.223-1.911,2.056-9.622a.528.528,0,0,0-.042-.322,5.424,5.424,0,0,1-.142-3.6c.829-2.63,3.811-2.832,4.333-.661.321,1.342-.528,3.1-1.18,5.695-.541,2.143,1.981,3.666,4.136,2.1,1.988-1.442,2.759-4.9,2.613-7.348-.289-4.884-5.645-5.94-9.043-4.367-3.9,1.8-4.78,6.63-3.022,8.836.223.281.4.452.321.737-.114.442-.214.886-.335,1.326a.47.47,0,0,1-.7.312,4,4,0,0,1-1.627-1.219c-1.494-1.849-1.921-5.507.053-8.605a10.339,10.339,0,0,1,9.973-4.4,8.444,8.444,0,0,1,7.768,6.976,11.614,11.614,0,0,1-2.132,8.162c-2.531,3.139-6.633,3.347-8.526,1.42C177.985,148.451,177.868,148.278,177.726,148.1Z" transform="translate(-169.716 -131.967)" fill="#fff" fill-rule="evenodd"/>
</svg>
