<svg xmlns="http://www.w3.org/2000/svg" width="33.976" height="31" viewBox="0 0 33.976 31">
  <path id="Trazado_33" data-name="Trazado 33" d="M833.135,834.611c-3.025-5.452-6.225-10.766-9.3-16.174-.985-1.729-1.684-1.317-2.493.161-.857,1.568-1.8,3.066-2.818,4.789,0,0,0,0,0-.006s0,0,0,.006c-1.021-1.723-1.965-3.222-2.818-4.789-.809-1.478-1.508-1.89-2.493-.161-3.081,5.41-6.279,10.725-9.3,16.174a20.132,20.132,0,0,0-2.224,12.221,1.636,1.636,0,0,0,2.12,1.4l.1-.033a1.638,1.638,0,0,0,1.135-1.669c-.567-9.587,5.78-15.221,9.172-22.629,2.141,1.911,2.263,3.631.749,5.843-1.639,2.4-3.031,5.046-4.5,7.611a13.488,13.488,0,0,0-1.911,9.044c1.857-.257,3.529-.382,3.428-3.3-.057-1.547.77-2.078,2.087-2.033,1.484.051,2.974.075,4.461.075s2.974-.024,4.461-.075c1.32-.045,2.147.487,2.087,2.033-.1,2.92,1.568,3.045,3.428,3.3a13.488,13.488,0,0,0-1.911-9.044c-1.466-2.565-2.857-5.207-4.5-7.611-1.514-2.215-1.391-3.935.749-5.843,3.392,7.408,9.739,13.042,9.172,22.629a1.641,1.641,0,0,0,1.135,1.669c.033.012.069.021.1.033a1.636,1.636,0,0,0,2.12-1.4A20.132,20.132,0,0,0,833.135,834.611ZM822.1,836.845h-7.16c1.26-2.183,2.335-4.049,3.556-6.169.006.012.015.027.024.042.006-.012.015-.027.024-.042C819.759,832.8,820.837,834.662,822.1,836.845Z" transform="translate(-801.529 -817.306)" fill="#fff"/>
</svg>
