<svg xmlns="http://www.w3.org/2000/svg" width="23.222" height="19.114" viewBox="0 0 23.222 19.114">
  <g id="TWITTER_BLACK" transform="translate(-4.13 -8)">
    <path id="Trazado_2" data-name="Trazado 2" d="M265.663,74.59a9.537,9.537,0,0,1-2.349.669c.378-.063.933-.747,1.155-1.023a4.317,4.317,0,0,0,.78-1.422c.02-.04.035-.091-.005-.122a.13.13,0,0,0-.124.01,12,12,0,0,1-2.785,1.065.186.186,0,0,1-.192-.05,2.28,2.28,0,0,0-.243-.249,4.912,4.912,0,0,0-1.349-.827,4.7,4.7,0,0,0-2.069-.334,4.959,4.959,0,0,0-1.963.555,5.064,5.064,0,0,0-1.583,1.293,4.85,4.85,0,0,0-.946,1.894,5.125,5.125,0,0,0-.05,2c.015.112.005.127-.1.112a14.868,14.868,0,0,1-9.567-4.87c-.112-.128-.173-.128-.264.01a4.851,4.851,0,0,0,.827,5.732c.188.178.381.355.588.518a4.874,4.874,0,0,1-1.846-.518c-.112-.07-.168-.03-.178.1a2.968,2.968,0,0,0,.03.548,4.907,4.907,0,0,0,3.024,3.911,2.9,2.9,0,0,0,.614.188,5.464,5.464,0,0,1-1.81.056c-.132-.025-.183.041-.132.168a5.091,5.091,0,0,0,3.8,3.186c.172.03.345.03.518.07-.01.016-.021.016-.03.031-.428.651-1.909,1.136-2.6,1.377a9.3,9.3,0,0,1-3.946.5c-.212-.031-.256-.029-.314,0s-.008.087.061.142c.269.177.542.336.821.488a13.073,13.073,0,0,0,2.638,1.055,14.05,14.05,0,0,0,13.64-3.19c2.8-2.777,3.775-6.607,3.775-10.441,0-.15.177-.233.282-.312a9.225,9.225,0,0,0,1.857-1.93.588.588,0,0,0,.123-.37v-.02C265.758,74.529,265.758,74.548,265.663,74.59Z" transform="translate(-238.407 -64.299)" fill="#fff"/>
  </g>
</svg>
